<svg xmlns="http://www.w3.org/2000/svg" width="240" height="90" viewBox="0 0 240 90" preserveAspectRatio="none">
<g><path d="M -1.1 90 Q 1.1 72.4 3.3 54.8 Q 4.0 72.4 6.1 90 Z" fill="#1a7a3c"/><path d="M 7.0 90 Q 8.4 65.6 19.5 41.1 Q 10.2 65.6 11.6 90 Z" fill="#1a7a3c"/><path d="M 12.7 90 Q 14.1 73.7 23.0 57.4 Q 15.9 73.7 17.3 90 Z" fill="#166534"/><path d="M 17.8 90 Q 19.9 75.1 23.9 60.3 Q 22.7 75.1 24.8 90 Z" fill="#1a7a3c"/><path d="M 28.5 90 Q 30.2 75.2 33.1 60.5 Q 32.5 75.2 34.3 90 Z" fill="#15803d"/><path d="M 36.7 90 Q 38.1 75.2 43.6 60.3 Q 40.0 75.2 41.5 90 Z" fill="#15803d"/><path d="M 42.0 90 Q 44.0 67.1 53.7 44.3 Q 46.7 67.1 48.7 90 Z" fill="#1a7a3c"/><path d="M 50.1 90 Q 51.6 75.6 50.2 61.1 Q 53.5 75.6 55.0 90 Z" fill="#166534"/><path d="M 55.5 90 Q 57.0 72.4 63.2 54.8 Q 59.1 72.4 60.7 90 Z" fill="#1a7a3c"/><path d="M 62.9 90 Q 64.7 73.6 65.3 57.2 Q 67.1 73.6 68.9 90 Z" fill="#166534"/><path d="M 69.2 90 Q 70.8 65.9 74.3 41.8 Q 72.9 65.9 74.5 90 Z" fill="#1a7a3c"/><path d="M 77.6 90 Q 79.1 71.2 81.5 52.4 Q 81.1 71.2 82.7 90 Z" fill="#15803d"/><path d="M 84.6 90 Q 86.2 69.7 86.3 49.4 Q 88.3 69.7 89.8 90 Z" fill="#166534"/><path d="M 89.7 90 Q 91.2 66.7 85.2 43.5 Q 93.0 66.7 94.5 90 Z" fill="#1a7a3c"/><path d="M 98.8 90 Q 100.4 68.6 110.6 47.2 Q 102.4 68.6 103.9 90 Z" fill="#166534"/><path d="M 105.0 90 Q 106.5 68.4 111.4 46.8 Q 108.6 68.4 110.1 90 Z" fill="#15803d"/><path d="M 112.3 90 Q 114.2 76.0 112.5 62.0 Q 116.9 76.0 118.8 90 Z" fill="#1a7a3c"/><path d="M 119.3 90 Q 120.8 71.6 122.0 53.2 Q 122.9 71.6 124.4 90 Z" fill="#15803d"/><path d="M 128.3 90 Q 129.7 72.6 132.3 55.2 Q 131.5 72.6 132.9 90 Z" fill="#1a7a3c"/><path d="M 133.7 90 Q 135.7 70.6 130.7 51.2 Q 138.4 70.6 140.4 90 Z" fill="#15803d"/><path d="M 139.4 90 Q 141.0 70.5 147.5 51.1 Q 143.2 70.5 144.8 90 Z" fill="#15803d"/><path d="M 147.4 90 Q 149.0 74.7 157.5 59.4 Q 151.1 74.7 152.6 90 Z" fill="#166534"/><path d="M 154.2 90 Q 156.4 65.2 163.3 40.4 Q 159.2 65.2 161.4 90 Z" fill="#15803d"/><path d="M 160.0 90 Q 162.0 70.1 161.2 50.1 Q 164.6 70.1 166.6 90 Z" fill="#166534"/><path d="M 169.9 90 Q 172.0 66.7 173.5 43.3 Q 174.8 66.7 176.9 90 Z" fill="#166534"/><path d="M 176.3 90 Q 177.9 65.3 178.0 40.7 Q 180.0 65.3 181.6 90 Z" fill="#1a7a3c"/><path d="M 184.8 90 Q 186.3 65.5 179.5 41.0 Q 188.4 65.5 189.9 90 Z" fill="#166534"/><path d="M 187.5 90 Q 189.5 74.4 193.3 58.7 Q 192.1 74.4 194.1 90 Z" fill="#15803d"/><path d="M 196.9 90 Q 198.8 72.6 194.5 55.1 Q 201.2 72.6 203.0 90 Z" fill="#166534"/><path d="M 205.4 90 Q 207.3 65.1 202.2 40.1 Q 209.9 65.1 211.7 90 Z" fill="#15803d"/><path d="M 212.1 90 Q 214.0 72.0 211.9 54.0 Q 216.5 72.0 218.4 90 Z" fill="#15803d"/><path d="M 219.3 90 Q 221.2 71.7 218.3 53.5 Q 223.6 71.7 225.5 90 Z" fill="#166534"/><path d="M 224.7 90 Q 226.8 64.8 227.0 39.6 Q 229.7 64.8 231.8 90 Z" fill="#15803d"/><path d="M 232.4 90 Q 234.2 68.2 228.1 46.4 Q 236.6 68.2 238.5 90 Z" fill="#1a7a3c"/></g>
<g><path d="M -0.3 90 Q 1.6 71.2 10.2 52.5 Q 4.0 71.2 5.9 90 Z" fill="#1f9d46"/><path d="M 8.3 90 Q 10.5 60.7 1.9 31.3 Q 13.4 60.7 15.6 90 Z" fill="#22a64a"/><path d="M 13.0 90 Q 15.1 68.7 7.2 47.4 Q 17.9 68.7 19.9 90 Z" fill="#27ae54"/><path d="M 23.2 90 Q 25.4 71.8 25.1 53.6 Q 28.2 71.8 30.3 90 Z" fill="#1f9d46"/><path d="M 29.6 90 Q 31.6 68.7 25.6 47.4 Q 34.2 68.7 36.1 90 Z" fill="#1f9d46"/><path d="M 37.9 90 Q 40.1 62.1 31.0 34.3 Q 42.9 62.1 45.1 90 Z" fill="#22a64a"/><path d="M 50.2 90 Q 51.7 69.9 47.9 49.8 Q 53.8 69.9 55.3 90 Z" fill="#27ae54"/><path d="M 55.6 90 Q 57.1 61.8 44.9 33.6 Q 59.1 61.8 60.6 90 Z" fill="#22a64a"/><path d="M 60.8 90 Q 63.1 64.6 53.4 39.2 Q 66.1 64.6 68.4 90 Z" fill="#22a64a"/><path d="M 69.7 90 Q 71.5 68.8 69.0 47.6 Q 74.0 68.8 75.8 90 Z" fill="#1f9d46"/><path d="M 82.1 90 Q 83.7 61.4 87.5 32.7 Q 85.8 61.4 87.3 90 Z" fill="#22a64a"/><path d="M 89.3 90 Q 90.8 60.7 91.7 31.5 Q 92.8 60.7 94.3 90 Z" fill="#27ae54"/><path d="M 96.7 90 Q 98.4 71.1 92.3 52.2 Q 100.7 71.1 102.4 90 Z" fill="#22a64a"/><path d="M 101.7 90 Q 103.8 62.4 106.8 34.9 Q 106.7 62.4 108.8 90 Z" fill="#1f9d46"/><path d="M 112.8 90 Q 114.8 64.4 106.7 38.8 Q 117.5 64.4 119.4 90 Z" fill="#1f9d46"/><path d="M 119.3 90 Q 121.2 60.4 137.0 30.7 Q 123.8 60.4 125.8 90 Z" fill="#27ae54"/><path d="M 129.1 90 Q 131.0 67.1 141.8 44.2 Q 133.5 67.1 135.3 90 Z" fill="#27ae54"/><path d="M 137.4 90 Q 139.3 58.0 152.3 26.0 Q 141.9 58.0 143.8 90 Z" fill="#22a64a"/><path d="M 144.9 90 Q 146.4 70.8 149.4 51.5 Q 148.4 70.8 149.8 90 Z" fill="#27ae54"/><path d="M 149.6 90 Q 151.1 59.3 162.6 28.5 Q 153.0 59.3 154.5 90 Z" fill="#1f9d46"/><path d="M 157.6 90 Q 159.4 64.3 148.9 38.5 Q 161.7 64.3 163.4 90 Z" fill="#22a64a"/><path d="M 166.3 90 Q 168.6 60.3 178.3 30.5 Q 171.5 60.3 173.7 90 Z" fill="#1f9d46"/><path d="M 177.4 90 Q 178.9 63.9 180.2 37.7 Q 181.0 63.9 182.5 90 Z" fill="#1f9d46"/><path d="M 184.1 90 Q 185.6 70.6 182.1 51.2 Q 187.5 70.6 188.9 90 Z" fill="#22a64a"/><path d="M 189.7 90 Q 192.0 67.4 194.2 44.8 Q 195.0 67.4 197.3 90 Z" fill="#1f9d46"/><path d="M 199.1 90 Q 201.3 58.4 216.4 26.7 Q 204.3 58.4 206.5 90 Z" fill="#1f9d46"/><path d="M 208.5 90 Q 210.3 70.7 204.8 51.4 Q 212.8 70.7 214.6 90 Z" fill="#27ae54"/><path d="M 215.7 90 Q 217.7 71.7 213.5 53.4 Q 220.5 71.7 222.6 90 Z" fill="#27ae54"/><path d="M 225.0 90 Q 226.5 60.1 224.8 30.3 Q 228.5 60.1 229.9 90 Z" fill="#22a64a"/><path d="M 232.0 90 Q 233.9 61.7 233.7 33.3 Q 236.5 61.7 238.5 90 Z" fill="#22a64a"/></g>
<g><path d="M -2.3 90 Q 0.0 67.7 10.0 45.5 Q 3.2 67.7 5.5 90 Z" fill="#34d36a"/><path d="M 7.6 90 Q 9.9 61.3 19.1 32.7 Q 12.9 61.3 15.2 90 Z" fill="#34d36a"/><path d="M 16.6 90 Q 18.4 65.8 23.9 41.6 Q 20.8 65.8 22.7 90 Z" fill="#43c869"/><path d="M 29.1 90 Q 31.5 63.1 38.0 36.1 Q 34.7 63.1 37.1 90 Z" fill="#56d97c"/><path d="M 36.7 90 Q 39.0 54.3 43.4 18.6 Q 42.0 54.3 44.3 90 Z" fill="#43c869"/><path d="M 46.4 90 Q 48.1 52.1 49.7 14.3 Q 50.3 52.1 51.9 90 Z" fill="#34d36a"/><path d="M 57.4 90 Q 59.5 50.8 80.4 11.5 Q 62.3 50.8 64.4 90 Z" fill="#34d36a"/><path d="M 64.8 90 Q 66.9 62.6 81.8 35.2 Q 69.7 62.6 71.8 90 Z" fill="#34d36a"/><path d="M 75.5 90 Q 77.6 57.7 68.6 25.3 Q 80.6 57.7 82.8 90 Z" fill="#34d36a"/><path d="M 79.6 90 Q 81.8 60.8 88.8 31.6 Q 84.8 60.8 87.0 90 Z" fill="#34d36a"/><path d="M 92.7 90 Q 94.4 55.9 97.2 21.8 Q 96.6 55.9 98.3 90 Z" fill="#43c869"/><path d="M 100.6 90 Q 102.4 64.9 107.7 39.8 Q 104.8 64.9 106.6 90 Z" fill="#34d36a"/><path d="M 107.6 90 Q 109.9 51.1 111.8 12.3 Q 112.9 51.1 115.2 90 Z" fill="#56d97c"/><path d="M 122.4 90 Q 124.1 64.1 137.1 38.2 Q 126.4 64.1 128.1 90 Z" fill="#43c869"/><path d="M 128.2 90 Q 129.8 56.1 117.3 22.3 Q 132.0 56.1 133.6 90 Z" fill="#43c869"/><path d="M 135.8 90 Q 138.0 48.9 145.9 7.8 Q 140.8 48.9 143.0 90 Z" fill="#34d36a"/><path d="M 148.2 90 Q 149.9 58.8 141.4 27.6 Q 152.1 58.8 153.8 90 Z" fill="#43c869"/><path d="M 153.8 90 Q 155.9 55.9 169.5 21.7 Q 158.7 55.9 160.8 90 Z" fill="#43c869"/><path d="M 164.1 90 Q 165.8 63.5 156.4 36.9 Q 168.0 63.5 169.6 90 Z" fill="#34d36a"/><path d="M 172.3 90 Q 174.3 56.7 162.6 23.3 Q 176.9 56.7 178.8 90 Z" fill="#34d36a"/><path d="M 186.9 90 Q 188.5 64.9 185.5 39.9 Q 190.7 64.9 192.4 90 Z" fill="#56d97c"/><path d="M 194.3 90 Q 196.5 67.8 196.7 45.6 Q 199.5 67.8 201.8 90 Z" fill="#34d36a"/><path d="M 200.9 90 Q 202.9 49.5 223.2 9.0 Q 205.5 49.5 207.5 90 Z" fill="#56d97c"/><path d="M 212.1 90 Q 214.3 51.4 222.2 12.7 Q 217.1 51.4 219.2 90 Z" fill="#43c869"/><path d="M 222.0 90 Q 224.3 65.1 222.6 40.1 Q 227.5 65.1 229.9 90 Z" fill="#56d97c"/><path d="M 229.0 90 Q 231.0 64.7 227.8 39.4 Q 233.7 64.7 235.8 90 Z" fill="#56d97c"/></g>
</svg>