<?xml version="1.0" encoding="UTF-8"?>
<svg id="Layer_1" data-name="Layer 1" xmlns="http://www.w3.org/2000/svg" viewBox="0 0 381.03 480">
  <defs>
    <style>
      .cls-1 {
        fill: #4dffb5;
        stroke: #000;
        stroke-miterlimit: 10;
        stroke-width: 4px;
      }
    </style>
  </defs>
  <path class="cls-1" d="M361.03,176v32h16.5l1.5,1.5v267l-1.5,1.5H4.03v-243h19v-53H3.53l-1.5-1.5v-34.5h21v-18H2.03L4.03,2h292.5l82.5,81.5v91l-1.5,1.5h-16.5ZM91.03,82l-27.01-45-24.99,45h52ZM58.29,132.25c-1.16,1.24-1.19,3.56-1.3,5.2v281.09s1.98,6.01,1.98,6.01l260.65.54,1.97-4.03V134.95s-4.51-4.5-4.51-4.5l-251.6-.5c-1.88,0-6.01,1.05-7.19,2.31Z"/>
  <path class="cls-1" d="M197.03,341v-113h48.5c14.3,0,27.29,14.08,31.22,26.78,4.4,14.23,4.09,50.8-1.86,64.57-3.67,8.49-16.69,21.64-26.36,21.64h-51.5ZM218.03,323h27.5c3.84,0,10.52-6.22,12.23-9.77,4.68-9.73,4.75-43.54,1.31-53.77-1.98-5.9-7.72-13.46-14.54-13.46h-26.5v77Z"/>
  <path class="cls-1" d="M171.03,227v19c-9.68-4.27-44.76-8.62-47.79,4.71-.71,3.11-.57,7.79.91,10.66,4.67,9.07,28.59,14.92,38.18,20.83,15.26,9.4,19.7,20.05,14,37.6-8.59,26.48-55.18,23.37-76.3,17.2v-19c13.22,5.47,47.38,9.76,56.99-2.51,14.4-18.35-23.47-25.24-34.01-30.98-14.8-8.05-20.63-18.93-17.9-35.94,4.51-28.1,45-27.44,65.92-21.58Z"/>
</svg>